<svg width="586" height="260" viewBox="0 0 586 260" fill="none" xmlns="http://www.w3.org/2000/svg">
<path d="M153.417 39.4502C148.664 34.9766 135.524 33.2565 127.665 34.9764C120.148 37.5788 112.487 39.8266 105.112 42.8291C102.703 43.8099 100.381 45.0129 97.9982 46.0516C95.09 47.3193 95.2852 51.5836 93.4007 53.8105C89.3693 58.5743 82.6319 59.5991 76.8745 60.1302C72.949 60.4924 68.9927 62.1407 65.6291 64.1974C61.7312 66.5809 61.4657 71.8076 61.0316 76.0547C60.6039 80.2392 64.6204 84.2192 66.7785 87.5366C69.4632 91.6636 73.1326 95.7722 76.9676 98.8621C80.6759 101.85 85.5791 102.578 89.207 105.432C97.9982 108.436 108.661 110.112 111.542 119.198C112.725 122.927 114.276 127.864 114.276 132.088C114.276 133.746 113.437 135.186 114.276 138.002" stroke="white" stroke-width="4" stroke-linecap="round" stroke-linejoin="round"/>
<path d="M150.438 46.9888C151.572 44.0573 152.226 42.3789 153.979 39.7305C156.091 40.0343 157.312 41.0306 159.26 41.9831C161.991 43.3184 165.573 43.5874 167.989 45.4558C174.547 50.5271 176.196 59.754 177.712 67.262C178.772 72.5097 183.721 81.811 179.359 86.7218C177.097 89.2678 172.516 89.2678 169.573 90.6013C165 92.6738 161.045 96.0003 156.278 97.6719C152.747 98.9099 148.548 98.1949 144.846 98.8608C137.74 100.139 133.193 98.9846 131.053 91.4773C128.174 81.3713 136.897 70.395 142.081 62.663C145.321 57.8309 148.336 52.4209 150.438 46.9888Z" stroke="white" stroke-width="4" stroke-linecap="round" stroke-linejoin="round"/>
<path d="M212.689 92.8767C214.519 87.9378 214.55 86.09 219.492 84.3669C223.494 82.9716 227.831 80.3692 232.011 79.7992C235.77 79.2865 238.694 78.3035 241.827 76.2326C245.152 74.0353 248.608 73.2651 249.842 69.3497C250.91 65.9615 254.174 63.1106 253.974 59.3695C253.8 56.1312 250.272 53.3952 248.351 51.0787C245.455 47.5861 243.306 45.1031 242.076 40.598C241.307 37.7837 240.462 35.322 238.721 32.9955C235.217 28.3129 231.639 27.5589 226.233 25.6433C224.442 25.0087 222.466 24.7913 220.735 24.0165C218.093 22.8339 213.248 20.6689 213.248 20.6689C209.692 20.0513 207.95 16.6252 205.731 13.9424C203.218 10.9055 203.139 7.93401 201.692 4.58794C201.125 3.27619 200.001 2.14653 198.524 2.0225C194.555 1.68939 194.226 5.11875 193.305 8.12324C191.463 14.1318 187.739 19.361 186.098 25.4869C184.489 31.4921 183.676 35.446 179.233 40.3477C177.857 41.865 176.403 43.2422 175.287 44.978C174.123 46.7896 172.43 48.388 172.43 48.388" stroke="white" stroke-width="4" stroke-linecap="round" stroke-linejoin="round"/>
<ellipse cx="114.279" cy="63.6663" rx="5.59159" ry="5.34988" fill="white"/>
<ellipse cx="226.669" cy="47.6145" rx="4.47327" ry="4.50517" fill="white"/>
<path d="M16.8 173L1.152 107.432H15.072L26.304 160.232H30.24L41.28 107.432H55.2L39.84 173H16.8ZM74.3873 174.056C69.3953 174.056 65.6193 172.808 63.0593 170.312C60.5633 167.752 59.3153 163.912 59.3153 158.792C59.3153 155.208 59.9553 152.424 61.2353 150.44C62.5153 148.392 64.4033 146.92 66.8993 146.024C69.4593 145.064 72.5633 144.488 76.2113 144.296L87.9233 143.24V140.36C87.9233 138.056 87.3473 136.456 86.1953 135.56C85.0433 134.6 83.3473 134.12 81.1073 134.12C79.3153 134.12 77.2353 134.184 74.8673 134.312C72.5633 134.44 70.2593 134.6 67.9553 134.792C65.7153 134.984 63.7633 135.176 62.0993 135.368L61.7153 126.344C63.3793 125.96 65.3633 125.576 67.6673 125.192C70.0353 124.744 72.4993 124.392 75.0593 124.136C77.6193 123.88 79.9873 123.752 82.1633 123.752C86.2593 123.752 89.6833 124.264 92.4353 125.288C95.1873 126.312 97.2673 128.008 98.6753 130.376C100.083 132.68 100.787 135.816 100.787 139.784V161.768C100.915 162.664 101.395 163.368 102.227 163.88C103.059 164.328 104.019 164.648 105.107 164.84L104.819 173.672C103.283 173.736 101.779 173.768 100.307 173.768C98.8353 173.768 97.5873 173.672 96.5633 173.48C95.0913 173.288 93.8113 172.904 92.7233 172.328C91.6993 171.752 90.8673 171.144 90.2273 170.504C89.2033 170.952 87.8273 171.464 86.0993 172.04C84.3713 172.616 82.4833 173.096 80.4353 173.48C78.4513 173.864 76.4353 174.056 74.3873 174.056ZM77.4593 164.552C78.6753 164.552 79.9553 164.424 81.2993 164.168C82.6433 163.912 83.8913 163.624 85.0433 163.304C86.2593 162.92 87.2193 162.568 87.9233 162.248V151.208L78.1313 152.072C76.0193 152.264 74.4833 152.904 73.5233 153.992C72.6273 155.016 72.1793 156.488 72.1793 158.408C72.1793 160.328 72.5953 161.832 73.4273 162.92C74.3233 164.008 75.6673 164.552 77.4593 164.552ZM112.061 173V124.808H124.829V130.472C125.917 129.64 127.261 128.776 128.861 127.88C130.461 126.92 132.189 126.056 134.045 125.288C135.965 124.456 137.789 123.912 139.517 123.656V136.04C137.853 136.296 136.093 136.744 134.237 137.384C132.381 137.96 130.621 138.6 128.957 139.304C127.357 140.008 125.981 140.648 124.829 141.224V173H112.061ZM167.402 194.984C162.282 194.984 157.994 194.6 154.538 193.832C151.146 193.064 148.586 191.656 146.858 189.608C145.13 187.624 144.266 184.744 144.266 180.968C144.266 179.304 144.49 177.8 144.938 176.456C145.45 175.176 146.218 173.96 147.242 172.808C148.33 171.656 149.674 170.472 151.274 169.256C150.378 168.616 149.642 167.688 149.066 166.472C148.554 165.192 148.298 163.816 148.298 162.344C148.298 161.576 148.746 160.456 149.642 158.984C150.602 157.448 151.53 156.104 152.426 154.952C151.146 154.376 149.93 153.544 148.778 152.456C147.626 151.304 146.666 149.768 145.898 147.848C145.194 145.928 144.842 143.464 144.842 140.456C144.842 134.376 146.57 130.088 150.026 127.592C153.546 125.032 158.538 123.752 165.002 123.752C166.666 123.752 168.458 123.88 170.378 124.136C172.298 124.392 173.834 124.648 174.986 124.904L190.634 124.616V133.256L183.338 133.16C183.914 133.928 184.426 134.92 184.874 136.136C185.386 137.288 185.642 138.728 185.642 140.456C185.642 144.872 184.874 148.296 183.338 150.728C181.866 153.16 179.626 154.856 176.618 155.816C173.61 156.712 169.802 157.16 165.194 157.16C164.682 157.16 163.978 157.128 163.082 157.064C162.186 156.936 161.45 156.84 160.874 156.776C160.618 157.416 160.362 158.152 160.106 158.984C159.85 159.752 159.722 160.296 159.722 160.616C159.722 161.448 159.978 162.088 160.49 162.536C161.066 162.984 162.186 163.304 163.85 163.496C165.578 163.624 168.17 163.688 171.626 163.688C176.17 163.688 179.786 164.104 182.474 164.936C185.226 165.768 187.178 167.24 188.33 169.352C189.482 171.464 190.058 174.44 190.058 178.28C190.058 183.976 188.042 188.168 184.01 190.856C180.042 193.608 174.506 194.984 167.402 194.984ZM166.73 185.48C170.698 185.48 173.546 185 175.274 184.04C177.066 183.144 177.962 181.64 177.962 179.528C177.962 177.864 177.642 176.648 177.002 175.88C176.426 175.112 175.434 174.6 174.026 174.344C172.618 174.152 170.698 174.056 168.266 174.056C167.626 174.056 166.858 174.024 165.962 173.96C165.066 173.96 164.138 173.928 163.178 173.864C162.282 173.864 161.45 173.832 160.682 173.768C159.978 173.704 159.466 173.672 159.146 173.672C157.738 174.632 156.778 175.496 156.266 176.264C155.754 177.096 155.498 178.184 155.498 179.528C155.498 181 155.85 182.152 156.554 182.984C157.258 183.88 158.41 184.52 160.01 184.904C161.674 185.288 163.914 185.48 166.73 185.48ZM165.098 148.136C168.042 148.136 170.122 147.56 171.338 146.408C172.618 145.192 173.258 143.208 173.258 140.456C173.258 137.704 172.618 135.72 171.338 134.504C170.122 133.288 168.042 132.68 165.098 132.68C162.282 132.68 160.234 133.288 158.954 134.504C157.738 135.72 157.13 137.704 157.13 140.456C157.13 143.208 157.738 145.192 158.954 146.408C160.234 147.56 162.282 148.136 165.098 148.136ZM209.95 174.056C204.958 174.056 201.182 172.808 198.622 170.312C196.126 167.752 194.878 163.912 194.878 158.792C194.878 155.208 195.518 152.424 196.798 150.44C198.078 148.392 199.966 146.92 202.462 146.024C205.022 145.064 208.126 144.488 211.774 144.296L223.486 143.24V140.36C223.486 138.056 222.91 136.456 221.758 135.56C220.606 134.6 218.91 134.12 216.67 134.12C214.878 134.12 212.798 134.184 210.43 134.312C208.126 134.44 205.822 134.6 203.518 134.792C201.278 134.984 199.326 135.176 197.662 135.368L197.278 126.344C198.942 125.96 200.926 125.576 203.23 125.192C205.598 124.744 208.062 124.392 210.622 124.136C213.182 123.88 215.55 123.752 217.726 123.752C221.822 123.752 225.246 124.264 227.998 125.288C230.75 126.312 232.83 128.008 234.238 130.376C235.646 132.68 236.35 135.816 236.35 139.784V161.768C236.478 162.664 236.958 163.368 237.79 163.88C238.622 164.328 239.582 164.648 240.67 164.84L240.382 173.672C238.846 173.736 237.342 173.768 235.87 173.768C234.398 173.768 233.15 173.672 232.126 173.48C230.654 173.288 229.374 172.904 228.286 172.328C227.262 171.752 226.43 171.144 225.79 170.504C224.766 170.952 223.39 171.464 221.662 172.04C219.934 172.616 218.046 173.096 215.998 173.48C214.014 173.864 211.998 174.056 209.95 174.056ZM213.022 164.552C214.238 164.552 215.518 164.424 216.862 164.168C218.206 163.912 219.454 163.624 220.606 163.304C221.822 162.92 222.782 162.568 223.486 162.248V151.208L213.694 152.072C211.582 152.264 210.046 152.904 209.086 153.992C208.19 155.016 207.742 156.488 207.742 158.408C207.742 160.328 208.158 161.832 208.99 162.92C209.886 164.008 211.23 164.552 213.022 164.552ZM265 174.056C262.888 174.056 260.616 173.928 258.184 173.672C255.816 173.48 253.576 173.224 251.464 172.904C249.416 172.584 247.656 172.264 246.184 171.944L246.568 162.44C248.232 162.632 250.088 162.856 252.136 163.112C254.248 163.368 256.296 163.592 258.28 163.784C260.328 163.912 261.992 163.976 263.272 163.976C265.192 163.976 266.76 163.816 267.976 163.496C269.256 163.176 270.216 162.664 270.856 161.96C271.496 161.192 271.816 160.104 271.816 158.696C271.816 157.608 271.528 156.776 270.952 156.2C270.44 155.624 269.416 155.144 267.88 154.76C266.408 154.312 264.232 153.864 261.352 153.416C257.768 152.904 254.792 152.168 252.424 151.208C250.12 150.248 248.424 148.84 247.336 146.984C246.248 145.064 245.704 142.472 245.704 139.208C245.704 135.24 246.568 132.136 248.296 129.896C250.024 127.656 252.328 126.088 255.208 125.192C258.088 124.232 261.224 123.752 264.616 123.752C266.856 123.752 269.16 123.88 271.528 124.136C273.896 124.328 276.136 124.584 278.248 124.904C280.36 125.224 282.12 125.544 283.528 125.864L283.144 135.56C281.544 135.304 279.688 135.08 277.576 134.888C275.464 134.632 273.352 134.44 271.24 134.312C269.192 134.184 267.464 134.12 266.056 134.12C264.584 134.12 263.272 134.28 262.12 134.6C260.968 134.856 260.072 135.304 259.432 135.944C258.856 136.584 258.568 137.544 258.568 138.824C258.568 139.72 258.824 140.456 259.336 141.032C259.848 141.608 260.808 142.12 262.216 142.568C263.688 142.952 265.8 143.336 268.552 143.72C272.52 144.296 275.688 145.096 278.056 146.12C280.424 147.144 282.12 148.616 283.144 150.536C284.232 152.456 284.776 155.048 284.776 158.312C284.776 164.136 283.048 168.232 279.592 170.6C276.2 172.904 271.336 174.056 265 174.056ZM304.706 173L289.058 107.432H302.978L314.21 160.232H318.146L329.186 107.432H343.106L327.746 173H304.706ZM369.206 174.056C363.894 174.056 359.67 173.16 356.534 171.368C353.462 169.576 351.254 166.856 349.91 163.208C348.566 159.56 347.894 154.984 347.894 149.48C347.894 143.528 348.726 138.664 350.39 134.888C352.118 131.112 354.614 128.328 357.878 126.536C361.142 124.68 365.174 123.752 369.974 123.752C377.078 123.752 382.422 125.544 386.006 129.128C389.654 132.712 391.478 138.376 391.478 146.12L390.902 153.224H360.758C360.822 156.808 361.558 159.496 362.966 161.288C364.374 163.08 366.806 163.976 370.262 163.976C372.246 163.976 374.422 163.944 376.79 163.88C379.158 163.752 381.494 163.624 383.798 163.496C386.166 163.368 388.182 163.24 389.846 163.112L390.134 172.04C388.534 172.296 386.518 172.584 384.086 172.904C381.654 173.224 379.126 173.48 376.502 173.672C373.942 173.928 371.51 174.056 369.206 174.056ZM360.758 145.064H378.71C378.71 140.712 378.006 137.672 376.598 135.944C375.254 134.216 373.046 133.352 369.974 133.352C366.966 133.352 364.662 134.248 363.062 136.04C361.526 137.832 360.758 140.84 360.758 145.064ZM416.864 174.152C413.344 174.152 410.496 173.64 408.32 172.616C406.144 171.592 404.576 169.832 403.616 167.336C402.72 164.776 402.272 161.224 402.272 156.68V135.464H396.608V124.808H402.272V112.04H415.04V124.808H427.328V135.464H415.04V153.32C415.04 155.816 415.136 157.768 415.328 159.176C415.584 160.584 416.096 161.576 416.864 162.152C417.632 162.728 418.816 163.016 420.416 163.016C420.864 163.016 421.536 162.984 422.432 162.92C423.328 162.856 424.224 162.792 425.12 162.728C426.016 162.664 426.752 162.6 427.328 162.536L427.712 172.808C426.176 173.064 424.32 173.352 422.144 173.672C420.032 173.992 418.272 174.152 416.864 174.152Z" fill="white"/>
<path d="M109.268 222V197.412H118.664C120.584 197.412 122.192 197.688 123.488 198.24C124.808 198.768 125.864 199.548 126.656 200.58C127.448 201.612 128.012 202.86 128.348 204.324C128.708 205.788 128.888 207.456 128.888 209.328C128.888 211.224 128.72 212.94 128.384 214.476C128.072 216.012 127.532 217.344 126.764 218.472C125.996 219.6 124.964 220.476 123.668 221.1C122.372 221.7 120.752 222 118.808 222H109.268ZM114.236 217.824H118.52C119.648 217.824 120.56 217.608 121.256 217.176C121.952 216.744 122.48 216.144 122.84 215.376C123.224 214.584 123.476 213.684 123.596 212.676C123.74 211.644 123.812 210.528 123.812 209.328C123.812 208.176 123.74 207.132 123.596 206.196C123.452 205.236 123.188 204.42 122.804 203.748C122.444 203.052 121.916 202.524 121.22 202.164C120.548 201.78 119.648 201.588 118.52 201.588H114.236V217.824ZM132.324 222V203.928H137.112V206.052C137.52 205.74 138.024 205.416 138.624 205.08C139.224 204.72 139.872 204.396 140.568 204.108C141.288 203.796 141.972 203.592 142.62 203.496V208.14C141.996 208.236 141.336 208.404 140.64 208.644C139.944 208.86 139.284 209.1 138.66 209.364C138.06 209.628 137.544 209.868 137.112 210.084V222H132.324ZM149.837 222.396C147.965 222.396 146.549 221.928 145.589 220.992C144.653 220.032 144.185 218.592 144.185 216.672C144.185 215.328 144.425 214.284 144.905 213.54C145.385 212.772 146.093 212.22 147.029 211.884C147.989 211.524 149.153 211.308 150.521 211.236L154.913 210.84V209.76C154.913 208.896 154.697 208.296 154.265 207.96C153.833 207.6 153.197 207.42 152.357 207.42C151.685 207.42 150.905 207.444 150.017 207.492C149.153 207.54 148.289 207.6 147.425 207.672C146.585 207.744 145.853 207.816 145.229 207.888L145.085 204.504C145.709 204.36 146.453 204.216 147.317 204.072C148.205 203.904 149.129 203.772 150.089 203.676C151.049 203.58 151.937 203.532 152.753 203.532C154.289 203.532 155.573 203.724 156.605 204.108C157.637 204.492 158.417 205.128 158.945 206.016C159.473 206.88 159.737 208.056 159.737 209.544V217.788C159.785 218.124 159.965 218.388 160.277 218.58C160.589 218.748 160.949 218.868 161.357 218.94L161.249 222.252C160.673 222.276 160.109 222.288 159.557 222.288C159.005 222.288 158.537 222.252 158.153 222.18C157.601 222.108 157.121 221.964 156.713 221.748C156.329 221.532 156.017 221.304 155.777 221.064C155.393 221.232 154.877 221.424 154.229 221.64C153.581 221.856 152.873 222.036 152.105 222.18C151.361 222.324 150.605 222.396 149.837 222.396ZM150.989 218.832C151.445 218.832 151.925 218.784 152.429 218.688C152.933 218.592 153.401 218.484 153.833 218.364C154.289 218.22 154.649 218.088 154.913 217.968V213.828L151.241 214.152C150.449 214.224 149.873 214.464 149.513 214.872C149.177 215.256 149.009 215.808 149.009 216.528C149.009 217.248 149.165 217.812 149.477 218.22C149.813 218.628 150.317 218.832 150.989 218.832ZM163.856 222V216.672H168.86V222H163.856ZM180.927 222.396C180.015 222.396 179.019 222.336 177.939 222.216C176.859 222.12 175.803 222 174.771 221.856C173.763 221.688 172.899 221.544 172.179 221.424L172.503 217.5C173.247 217.596 174.111 217.704 175.095 217.824C176.079 217.92 177.051 218.004 178.011 218.076C178.995 218.148 179.847 218.184 180.567 218.184C181.935 218.184 182.931 217.92 183.555 217.392C184.179 216.84 184.491 215.988 184.491 214.836C184.491 214.212 184.359 213.72 184.095 213.36C183.855 212.976 183.411 212.676 182.763 212.46C182.115 212.22 181.215 211.992 180.063 211.776C178.143 211.416 176.583 210.972 175.383 210.444C174.207 209.916 173.343 209.172 172.791 208.212C172.263 207.252 171.999 205.968 171.999 204.36C171.999 202.488 172.347 201.024 173.043 199.968C173.739 198.888 174.735 198.12 176.031 197.664C177.327 197.208 178.851 196.98 180.603 196.98C181.395 196.98 182.295 197.028 183.303 197.124C184.335 197.196 185.343 197.292 186.327 197.412C187.335 197.532 188.187 197.664 188.883 197.808L188.667 201.768C187.947 201.672 187.107 201.588 186.147 201.516C185.211 201.42 184.275 201.336 183.339 201.264C182.427 201.192 181.647 201.156 180.999 201.156C179.631 201.156 178.623 201.372 177.975 201.804C177.327 202.236 177.003 202.932 177.003 203.892C177.003 204.612 177.147 205.164 177.435 205.548C177.723 205.932 178.203 206.244 178.875 206.484C179.571 206.724 180.519 206.976 181.719 207.24C183.135 207.552 184.335 207.888 185.319 208.248C186.327 208.608 187.131 209.04 187.731 209.544C188.355 210.048 188.811 210.696 189.099 211.488C189.387 212.28 189.531 213.276 189.531 214.476C189.531 216.396 189.183 217.944 188.487 219.12C187.815 220.272 186.831 221.112 185.535 221.64C184.263 222.144 182.727 222.396 180.927 222.396ZM199.023 222.432C197.703 222.432 196.635 222.24 195.819 221.856C195.003 221.472 194.415 220.812 194.055 219.876C193.719 218.916 193.551 217.584 193.551 215.88V207.924H191.427V203.928H193.551V199.14H198.339V203.928H202.947V207.924H198.339V214.62C198.339 215.556 198.375 216.288 198.447 216.816C198.543 217.344 198.735 217.716 199.023 217.932C199.311 218.148 199.755 218.256 200.355 218.256C200.523 218.256 200.775 218.244 201.111 218.22C201.447 218.196 201.783 218.172 202.119 218.148C202.455 218.124 202.731 218.1 202.947 218.076L203.091 221.928C202.515 222.024 201.819 222.132 201.003 222.252C200.211 222.372 199.551 222.432 199.023 222.432ZM212.933 222.396C210.941 222.396 209.357 222.06 208.181 221.388C207.029 220.716 206.201 219.696 205.697 218.328C205.193 216.96 204.941 215.244 204.941 213.18C204.941 210.948 205.253 209.124 205.877 207.708C206.525 206.292 207.461 205.248 208.685 204.576C209.909 203.88 211.421 203.532 213.221 203.532C215.885 203.532 217.889 204.204 219.233 205.548C220.601 206.892 221.285 209.016 221.285 211.92L221.069 214.584H209.765C209.789 215.928 210.065 216.936 210.593 217.608C211.121 218.28 212.033 218.616 213.329 218.616C214.073 218.616 214.889 218.604 215.777 218.58C216.665 218.532 217.541 218.484 218.405 218.436C219.293 218.388 220.049 218.34 220.673 218.292L220.781 221.64C220.181 221.736 219.425 221.844 218.513 221.964C217.601 222.084 216.653 222.18 215.669 222.252C214.709 222.348 213.797 222.396 212.933 222.396ZM209.765 211.524H216.497C216.497 209.892 216.233 208.752 215.705 208.104C215.201 207.456 214.373 207.132 213.221 207.132C212.093 207.132 211.229 207.468 210.629 208.14C210.053 208.812 209.765 209.94 209.765 211.524ZM224.468 229.596V203.928H229.22L229.256 205.08C229.592 204.864 230.012 204.636 230.516 204.396C231.044 204.156 231.608 203.952 232.208 203.784C232.808 203.616 233.396 203.532 233.972 203.532C236.396 203.532 238.136 204.312 239.192 205.872C240.248 207.408 240.776 209.748 240.776 212.892C240.776 215.148 240.512 216.972 239.984 218.364C239.456 219.756 238.604 220.776 237.428 221.424C236.276 222.072 234.752 222.396 232.856 222.396C232.256 222.396 231.608 222.348 230.912 222.252C230.216 222.156 229.664 222.06 229.256 221.964V229.596H224.468ZM232.1 218.4C233.06 218.4 233.816 218.196 234.368 217.788C234.92 217.38 235.304 216.768 235.52 215.952C235.76 215.112 235.88 214.056 235.88 212.784C235.88 210.816 235.604 209.46 235.052 208.716C234.524 207.948 233.756 207.564 232.748 207.564C232.364 207.564 231.956 207.612 231.524 207.708C231.092 207.804 230.672 207.924 230.264 208.068C229.856 208.212 229.52 208.356 229.256 208.5V218.148C229.544 218.172 229.952 218.22 230.48 218.292C231.032 218.364 231.572 218.4 232.1 218.4ZM244.05 222V196.548H248.838V204.576C249.438 204.36 250.206 204.132 251.142 203.892C252.078 203.652 252.942 203.532 253.734 203.532C255.414 203.532 256.722 203.832 257.658 204.432C258.594 205.008 259.242 205.956 259.602 207.276C259.986 208.596 260.178 210.348 260.178 212.532V222H255.354V212.892C255.354 211.644 255.282 210.648 255.138 209.904C254.994 209.136 254.718 208.584 254.31 208.248C253.926 207.912 253.326 207.744 252.51 207.744C251.862 207.744 251.19 207.828 250.494 207.996C249.822 208.164 249.27 208.32 248.838 208.464V222H244.05ZM268.665 222.396C266.793 222.396 265.377 221.928 264.417 220.992C263.481 220.032 263.013 218.592 263.013 216.672C263.013 215.328 263.253 214.284 263.733 213.54C264.213 212.772 264.921 212.22 265.857 211.884C266.817 211.524 267.981 211.308 269.349 211.236L273.741 210.84V209.76C273.741 208.896 273.525 208.296 273.093 207.96C272.661 207.6 272.025 207.42 271.185 207.42C270.513 207.42 269.733 207.444 268.845 207.492C267.981 207.54 267.117 207.6 266.253 207.672C265.413 207.744 264.681 207.816 264.057 207.888L263.913 204.504C264.537 204.36 265.281 204.216 266.145 204.072C267.033 203.904 267.957 203.772 268.917 203.676C269.877 203.58 270.765 203.532 271.581 203.532C273.117 203.532 274.401 203.724 275.433 204.108C276.465 204.492 277.245 205.128 277.773 206.016C278.301 206.88 278.565 208.056 278.565 209.544V217.788C278.613 218.124 278.793 218.388 279.105 218.58C279.417 218.748 279.777 218.868 280.185 218.94L280.077 222.252C279.501 222.276 278.937 222.288 278.385 222.288C277.833 222.288 277.365 222.252 276.981 222.18C276.429 222.108 275.949 221.964 275.541 221.748C275.157 221.532 274.845 221.304 274.605 221.064C274.221 221.232 273.705 221.424 273.057 221.64C272.409 221.856 271.701 222.036 270.933 222.18C270.189 222.324 269.433 222.396 268.665 222.396ZM269.817 218.832C270.273 218.832 270.753 218.784 271.257 218.688C271.761 218.592 272.229 218.484 272.661 218.364C273.117 218.22 273.477 218.088 273.741 217.968V213.828L270.069 214.152C269.277 214.224 268.701 214.464 268.341 214.872C268.005 215.256 267.837 215.808 267.837 216.528C267.837 217.248 267.993 217.812 268.305 218.22C268.641 218.628 269.145 218.832 269.817 218.832ZM282.793 222V203.928H287.581V205.08C287.965 204.84 288.433 204.612 288.985 204.396C289.537 204.156 290.113 203.952 290.713 203.784C291.337 203.616 291.937 203.532 292.513 203.532C294.193 203.532 295.489 203.832 296.401 204.432C297.337 205.008 297.997 205.968 298.381 207.312C298.765 208.632 298.957 210.408 298.957 212.64V222H294.133V212.892C294.133 211.644 294.061 210.648 293.917 209.904C293.773 209.136 293.497 208.584 293.089 208.248C292.681 207.912 292.081 207.744 291.289 207.744C290.857 207.744 290.401 207.792 289.921 207.888C289.465 207.96 289.021 208.068 288.589 208.212C288.181 208.356 287.845 208.5 287.581 208.644V222H282.793ZM307.119 229.596L309.423 222H305.571L301.287 203.928H306.291L309.495 217.932H310.431L313.635 203.928H318.459L312.231 229.596H307.119ZM333.132 222L327.264 197.412H332.484L336.696 217.212H338.172L342.312 197.412H347.532L341.772 222H333.132ZM354.727 222.396C352.855 222.396 351.439 221.928 350.479 220.992C349.543 220.032 349.075 218.592 349.075 216.672C349.075 215.328 349.315 214.284 349.795 213.54C350.275 212.772 350.983 212.22 351.919 211.884C352.879 211.524 354.043 211.308 355.411 211.236L359.803 210.84V209.76C359.803 208.896 359.587 208.296 359.155 207.96C358.723 207.6 358.087 207.42 357.247 207.42C356.575 207.42 355.795 207.444 354.907 207.492C354.043 207.54 353.179 207.6 352.315 207.672C351.475 207.744 350.743 207.816 350.119 207.888L349.975 204.504C350.599 204.36 351.343 204.216 352.207 204.072C353.095 203.904 354.019 203.772 354.979 203.676C355.939 203.58 356.827 203.532 357.643 203.532C359.179 203.532 360.463 203.724 361.495 204.108C362.527 204.492 363.307 205.128 363.835 206.016C364.363 206.88 364.627 208.056 364.627 209.544V217.788C364.675 218.124 364.855 218.388 365.167 218.58C365.479 218.748 365.839 218.868 366.247 218.94L366.139 222.252C365.563 222.276 364.999 222.288 364.447 222.288C363.895 222.288 363.427 222.252 363.043 222.18C362.491 222.108 362.011 221.964 361.603 221.748C361.219 221.532 360.907 221.304 360.667 221.064C360.283 221.232 359.767 221.424 359.119 221.64C358.471 221.856 357.763 222.036 356.995 222.18C356.251 222.324 355.495 222.396 354.727 222.396ZM355.879 218.832C356.335 218.832 356.815 218.784 357.319 218.688C357.823 218.592 358.291 218.484 358.723 218.364C359.179 218.22 359.539 218.088 359.803 217.968V213.828L356.131 214.152C355.339 214.224 354.763 214.464 354.403 214.872C354.067 215.256 353.899 215.808 353.899 216.528C353.899 217.248 354.055 217.812 354.367 218.22C354.703 218.628 355.207 218.832 355.879 218.832ZM368.855 222V203.928H373.643V206.052C374.051 205.74 374.555 205.416 375.155 205.08C375.755 204.72 376.403 204.396 377.099 204.108C377.819 203.796 378.503 203.592 379.151 203.496V208.14C378.527 208.236 377.867 208.404 377.171 208.644C376.475 208.86 375.815 209.1 375.191 209.364C374.591 209.628 374.075 209.868 373.643 210.084V222H368.855ZM389.608 230.244C387.688 230.244 386.08 230.1 384.784 229.812C383.512 229.524 382.552 228.996 381.904 228.228C381.256 227.484 380.932 226.404 380.932 224.988C380.932 224.364 381.016 223.8 381.184 223.296C381.376 222.816 381.664 222.36 382.048 221.928C382.456 221.496 382.96 221.052 383.56 220.596C383.224 220.356 382.948 220.008 382.732 219.552C382.54 219.072 382.444 218.556 382.444 218.004C382.444 217.716 382.612 217.296 382.948 216.744C383.308 216.168 383.656 215.664 383.992 215.232C383.512 215.016 383.056 214.704 382.624 214.296C382.192 213.864 381.832 213.288 381.544 212.568C381.28 211.848 381.148 210.924 381.148 209.796C381.148 207.516 381.796 205.908 383.092 204.972C384.412 204.012 386.284 203.532 388.708 203.532C389.332 203.532 390.004 203.58 390.724 203.676C391.444 203.772 392.02 203.868 392.452 203.964L398.32 203.856V207.096L395.584 207.06C395.8 207.348 395.992 207.72 396.16 208.176C396.352 208.608 396.448 209.148 396.448 209.796C396.448 211.452 396.16 212.736 395.584 213.648C395.032 214.56 394.192 215.196 393.064 215.556C391.936 215.892 390.508 216.06 388.78 216.06C388.588 216.06 388.324 216.048 387.988 216.024C387.652 215.976 387.376 215.94 387.16 215.916C387.064 216.156 386.968 216.432 386.872 216.744C386.776 217.032 386.728 217.236 386.728 217.356C386.728 217.668 386.824 217.908 387.016 218.076C387.232 218.244 387.652 218.364 388.276 218.436C388.924 218.484 389.896 218.508 391.192 218.508C392.896 218.508 394.252 218.664 395.26 218.976C396.292 219.288 397.024 219.84 397.456 220.632C397.888 221.424 398.104 222.54 398.104 223.98C398.104 226.116 397.348 227.688 395.836 228.696C394.348 229.728 392.272 230.244 389.608 230.244ZM389.356 226.68C390.844 226.68 391.912 226.5 392.56 226.14C393.232 225.804 393.568 225.24 393.568 224.448C393.568 223.824 393.448 223.368 393.208 223.08C392.992 222.792 392.62 222.6 392.092 222.504C391.564 222.432 390.844 222.396 389.932 222.396C389.692 222.396 389.404 222.384 389.068 222.36C388.732 222.36 388.384 222.348 388.024 222.324C387.688 222.324 387.376 222.312 387.088 222.288C386.824 222.264 386.632 222.252 386.512 222.252C385.984 222.612 385.624 222.936 385.432 223.224C385.24 223.536 385.144 223.944 385.144 224.448C385.144 225 385.276 225.432 385.54 225.744C385.804 226.08 386.236 226.32 386.836 226.464C387.46 226.608 388.3 226.68 389.356 226.68ZM388.744 212.676C389.848 212.676 390.628 212.46 391.084 212.028C391.564 211.572 391.804 210.828 391.804 209.796C391.804 208.764 391.564 208.02 391.084 207.564C390.628 207.108 389.848 206.88 388.744 206.88C387.688 206.88 386.92 207.108 386.44 207.564C385.984 208.02 385.756 208.764 385.756 209.796C385.756 210.828 385.984 211.572 386.44 212.028C386.92 212.46 387.688 212.676 388.744 212.676ZM405.563 222.396C403.691 222.396 402.275 221.928 401.315 220.992C400.379 220.032 399.911 218.592 399.911 216.672C399.911 215.328 400.151 214.284 400.631 213.54C401.111 212.772 401.819 212.22 402.755 211.884C403.715 211.524 404.879 211.308 406.247 211.236L410.639 210.84V209.76C410.639 208.896 410.423 208.296 409.991 207.96C409.559 207.6 408.923 207.42 408.083 207.42C407.411 207.42 406.631 207.444 405.743 207.492C404.879 207.54 404.015 207.6 403.151 207.672C402.311 207.744 401.579 207.816 400.955 207.888L400.811 204.504C401.435 204.36 402.179 204.216 403.043 204.072C403.931 203.904 404.855 203.772 405.815 203.676C406.775 203.58 407.663 203.532 408.479 203.532C410.015 203.532 411.299 203.724 412.331 204.108C413.363 204.492 414.143 205.128 414.671 206.016C415.199 206.88 415.463 208.056 415.463 209.544V217.788C415.511 218.124 415.691 218.388 416.003 218.58C416.315 218.748 416.675 218.868 417.083 218.94L416.975 222.252C416.399 222.276 415.835 222.288 415.283 222.288C414.731 222.288 414.263 222.252 413.879 222.18C413.327 222.108 412.847 221.964 412.439 221.748C412.055 221.532 411.743 221.304 411.503 221.064C411.119 221.232 410.603 221.424 409.955 221.64C409.307 221.856 408.599 222.036 407.831 222.18C407.087 222.324 406.331 222.396 405.563 222.396ZM406.715 218.832C407.171 218.832 407.651 218.784 408.155 218.688C408.659 218.592 409.127 218.484 409.559 218.364C410.015 218.22 410.375 218.088 410.639 217.968V213.828L406.967 214.152C406.175 214.224 405.599 214.464 405.239 214.872C404.903 215.256 404.735 215.808 404.735 216.528C404.735 217.248 404.891 217.812 405.203 218.22C405.539 218.628 406.043 218.832 406.715 218.832ZM426.207 222.396C425.415 222.396 424.563 222.348 423.651 222.252C422.763 222.18 421.923 222.084 421.131 221.964C420.363 221.844 419.703 221.724 419.151 221.604L419.295 218.04C419.919 218.112 420.615 218.196 421.383 218.292C422.175 218.388 422.943 218.472 423.687 218.544C424.455 218.592 425.079 218.616 425.559 218.616C426.279 218.616 426.867 218.556 427.323 218.436C427.803 218.316 428.163 218.124 428.403 217.86C428.643 217.572 428.763 217.164 428.763 216.636C428.763 216.228 428.655 215.916 428.439 215.7C428.247 215.484 427.863 215.304 427.287 215.16C426.735 214.992 425.919 214.824 424.839 214.656C423.495 214.464 422.379 214.188 421.491 213.828C420.627 213.468 419.991 212.94 419.583 212.244C419.175 211.524 418.971 210.552 418.971 209.328C418.971 207.84 419.295 206.676 419.943 205.836C420.591 204.996 421.455 204.408 422.535 204.072C423.615 203.712 424.791 203.532 426.063 203.532C426.903 203.532 427.767 203.58 428.655 203.676C429.543 203.748 430.383 203.844 431.175 203.964C431.967 204.084 432.627 204.204 433.155 204.324L433.011 207.96C432.411 207.864 431.715 207.78 430.923 207.708C430.131 207.612 429.339 207.54 428.547 207.492C427.779 207.444 427.131 207.42 426.603 207.42C426.051 207.42 425.559 207.48 425.127 207.6C424.695 207.696 424.359 207.864 424.119 208.104C423.903 208.344 423.795 208.704 423.795 209.184C423.795 209.52 423.891 209.796 424.083 210.012C424.275 210.228 424.635 210.42 425.163 210.588C425.715 210.732 426.507 210.876 427.539 211.02C429.027 211.236 430.215 211.536 431.103 211.92C431.991 212.304 432.627 212.856 433.011 213.576C433.419 214.296 433.623 215.268 433.623 216.492C433.623 218.676 432.975 220.212 431.679 221.1C430.407 221.964 428.583 222.396 426.207 222.396Z" fill="white"/>
<path d="M158.416 253.264C157.136 253.264 156.08 253.104 155.248 252.784C154.432 252.448 153.784 251.936 153.304 251.248C152.824 250.56 152.488 249.688 152.296 248.632C152.12 247.56 152.032 246.288 152.032 244.816C152.032 243.328 152.12 242.056 152.296 241C152.488 239.928 152.824 239.048 153.304 238.36C153.784 237.672 154.44 237.16 155.272 236.824C156.12 236.488 157.2 236.32 158.512 236.32C159.04 236.32 159.592 236.352 160.168 236.416C160.744 236.48 161.296 236.56 161.824 236.656C162.368 236.736 162.832 236.824 163.216 236.92L163.12 239.56C162.8 239.496 162.4 239.44 161.92 239.392C161.44 239.328 160.952 239.28 160.456 239.248C159.96 239.216 159.496 239.2 159.064 239.2C158.296 239.2 157.672 239.296 157.192 239.488C156.712 239.68 156.336 240 156.064 240.448C155.808 240.896 155.632 241.48 155.536 242.2C155.44 242.904 155.392 243.776 155.392 244.816C155.392 245.84 155.44 246.712 155.536 247.432C155.632 248.136 155.808 248.712 156.064 249.16C156.32 249.592 156.688 249.912 157.168 250.12C157.664 250.312 158.304 250.408 159.088 250.408C159.728 250.408 160.432 250.376 161.2 250.312C161.984 250.232 162.632 250.16 163.144 250.096L163.216 252.712C162.832 252.792 162.376 252.88 161.848 252.976C161.32 253.056 160.76 253.12 160.168 253.168C159.576 253.232 158.992 253.264 158.416 253.264ZM165.473 253V236.608H170.801L174.113 247.552L177.353 236.608H182.753V253H179.441V240.856H179.105L175.673 252.568H172.553L169.121 240.856H168.785V253H165.473ZM188.458 253L184.546 236.608H188.026L190.834 249.808H191.818L194.578 236.608H198.058L194.218 253H188.458ZM199.207 253.024V250.024L206.527 239.872V239.392H199.207V236.608H210.727V239.68L203.431 249.76V250.216H210.727V253.024H199.207ZM212.835 245.824V242.272H216.171V245.824H212.835ZM212.835 253V249.448H216.171V253H212.835ZM218.861 253V250.408L222.485 246.688C223.173 245.984 223.765 245.368 224.261 244.84C224.757 244.296 225.133 243.784 225.389 243.304C225.661 242.824 225.797 242.312 225.797 241.768C225.797 240.968 225.573 240.432 225.125 240.16C224.677 239.872 223.957 239.728 222.965 239.728C222.565 239.728 222.125 239.752 221.645 239.8C221.165 239.848 220.701 239.904 220.253 239.968C219.821 240.032 219.445 240.096 219.125 240.16L218.957 237.616C219.309 237.52 219.741 237.416 220.253 237.304C220.781 237.192 221.349 237.096 221.957 237.016C222.581 236.92 223.189 236.872 223.781 236.872C225.509 236.872 226.829 237.24 227.741 237.976C228.653 238.696 229.109 239.816 229.109 241.336C229.109 242.168 228.989 242.904 228.749 243.544C228.525 244.184 228.165 244.8 227.669 245.392C227.189 245.968 226.549 246.6 225.749 247.288L222.581 250.312H229.325V253H218.861ZM237.549 253.264C236.941 253.264 236.285 253.216 235.581 253.12C234.877 253.04 234.197 252.936 233.541 252.808C232.885 252.68 232.325 252.568 231.861 252.472L232.149 250.024C232.581 250.088 233.093 250.168 233.685 250.264C234.277 250.344 234.885 250.408 235.509 250.456C236.133 250.504 236.701 250.528 237.213 250.528C238.029 250.528 238.677 250.32 239.157 249.904C239.637 249.472 239.877 248.848 239.877 248.032C239.877 247.472 239.773 247.032 239.565 246.712C239.373 246.392 239.085 246.168 238.701 246.04C238.333 245.896 237.901 245.824 237.405 245.824C237.021 245.824 236.637 245.864 236.253 245.944C235.869 246.008 235.509 246.096 235.173 246.208C234.837 246.304 234.565 246.408 234.357 246.52L232.197 246.184L232.581 237.16H242.493V240.064H235.173L234.861 243.592C235.085 243.496 235.365 243.4 235.701 243.304C236.037 243.192 236.397 243.096 236.781 243.016C237.181 242.936 237.565 242.896 237.933 242.896C239.037 242.896 239.973 243.048 240.741 243.352C241.509 243.656 242.093 244.16 242.493 244.864C242.909 245.568 243.117 246.528 243.117 247.744C243.117 249.008 242.885 250.048 242.421 250.864C241.973 251.664 241.333 252.264 240.501 252.664C239.685 253.064 238.701 253.264 237.549 253.264ZM250.885 253.264C250.277 253.264 249.621 253.216 248.917 253.12C248.213 253.04 247.533 252.936 246.877 252.808C246.221 252.68 245.661 252.568 245.197 252.472L245.485 250.024C245.917 250.088 246.429 250.168 247.021 250.264C247.613 250.344 248.221 250.408 248.845 250.456C249.469 250.504 250.037 250.528 250.549 250.528C251.365 250.528 252.013 250.32 252.493 249.904C252.973 249.472 253.213 248.848 253.213 248.032C253.213 247.472 253.109 247.032 252.901 246.712C252.709 246.392 252.421 246.168 252.037 246.04C251.669 245.896 251.237 245.824 250.741 245.824C250.357 245.824 249.973 245.864 249.589 245.944C249.205 246.008 248.845 246.096 248.509 246.208C248.173 246.304 247.901 246.408 247.693 246.52L245.533 246.184L245.917 237.16H255.829V240.064H248.509L248.197 243.592C248.421 243.496 248.701 243.4 249.037 243.304C249.373 243.192 249.733 243.096 250.117 243.016C250.517 242.936 250.901 242.896 251.269 242.896C252.373 242.896 253.309 243.048 254.077 243.352C254.845 243.656 255.429 244.16 255.829 244.864C256.245 245.568 256.453 246.528 256.453 247.744C256.453 249.008 256.221 250.048 255.757 250.864C255.309 251.664 254.669 252.264 253.837 252.664C253.021 253.064 252.037 253.264 250.885 253.264ZM264.125 253.264C263.101 253.264 262.213 253.128 261.461 252.856C260.709 252.568 260.085 252.112 259.589 251.488C259.109 250.848 258.741 250.016 258.485 248.992C258.245 247.968 258.125 246.712 258.125 245.224C258.125 243.688 258.245 242.384 258.485 241.312C258.741 240.24 259.117 239.384 259.613 238.744C260.109 238.088 260.725 237.616 261.461 237.328C262.213 237.04 263.093 236.896 264.101 236.896C265.141 236.896 266.037 237.04 266.789 237.328C267.541 237.616 268.157 238.088 268.637 238.744C269.133 239.384 269.493 240.24 269.717 241.312C269.957 242.368 270.077 243.672 270.077 245.224C270.077 247.192 269.861 248.768 269.429 249.952C269.013 251.12 268.365 251.968 267.485 252.496C266.605 253.008 265.485 253.264 264.125 253.264ZM264.125 250.48C264.573 250.48 264.957 250.408 265.277 250.264C265.613 250.104 265.893 249.832 266.117 249.448C266.341 249.064 266.501 248.528 266.597 247.84C266.709 247.152 266.765 246.28 266.765 245.224C266.765 244.104 266.709 243.184 266.597 242.464C266.501 241.744 266.349 241.184 266.141 240.784C265.933 240.368 265.661 240.08 265.325 239.92C264.989 239.744 264.589 239.656 264.125 239.656C263.661 239.656 263.261 239.744 262.925 239.92C262.589 240.08 262.309 240.36 262.085 240.76C261.877 241.16 261.717 241.728 261.605 242.464C261.493 243.184 261.437 244.112 261.437 245.248C261.437 246.304 261.493 247.176 261.605 247.864C261.733 248.552 261.909 249.088 262.133 249.472C262.357 249.84 262.629 250.104 262.949 250.264C263.285 250.408 263.677 250.48 264.125 250.48ZM272.037 247.984V245.248H279.285V247.984H272.037ZM282.028 253V236.608H287.356L290.668 247.552L293.908 236.608H299.308V253H295.996V240.856H295.66L292.228 252.568H289.108L285.676 240.856H285.34V253H282.028ZM302.325 253V236.608H308.493C309.853 236.608 310.981 236.8 311.877 237.184C312.773 237.552 313.445 238.152 313.893 238.984C314.357 239.816 314.589 240.928 314.589 242.32C314.589 243.712 314.357 244.848 313.893 245.728C313.445 246.592 312.773 247.232 311.877 247.648C310.981 248.048 309.853 248.248 308.493 248.248H305.637V253H302.325ZM305.637 245.536H308.397C309.405 245.536 310.125 245.272 310.557 244.744C310.989 244.2 311.205 243.4 311.205 242.344C311.205 241.256 310.989 240.48 310.557 240.016C310.125 239.552 309.405 239.32 308.397 239.32H305.637V245.536ZM316.715 253V236.608H322.883C324.243 236.608 325.371 236.8 326.267 237.184C327.163 237.552 327.835 238.152 328.283 238.984C328.747 239.816 328.979 240.928 328.979 242.32C328.979 243.712 328.747 244.848 328.283 245.728C327.835 246.592 327.163 247.232 326.267 247.648C325.371 248.048 324.243 248.248 322.883 248.248H320.027V253H316.715ZM320.027 245.536H322.787C323.795 245.536 324.515 245.272 324.947 244.744C325.379 244.2 325.595 243.4 325.595 242.344C325.595 241.256 325.379 240.48 324.947 240.016C324.515 239.552 323.795 239.32 322.787 239.32H320.027V245.536ZM331.106 253V236.608H337.37C338.65 236.608 339.722 236.792 340.586 237.16C341.466 237.512 342.17 238.032 342.698 238.72C343.226 239.408 343.602 240.24 343.826 241.216C344.066 242.192 344.186 243.304 344.186 244.552C344.186 245.816 344.074 246.96 343.85 247.984C343.642 249.008 343.282 249.896 342.77 250.648C342.258 251.4 341.57 251.984 340.706 252.4C339.842 252.8 338.762 253 337.466 253H331.106ZM334.418 250.216H337.274C338.026 250.216 338.634 250.072 339.098 249.784C339.562 249.496 339.914 249.096 340.154 248.584C340.41 248.056 340.578 247.456 340.658 246.784C340.754 246.096 340.802 245.352 340.802 244.552C340.802 243.784 340.754 243.088 340.658 242.464C340.562 241.824 340.386 241.28 340.13 240.832C339.89 240.368 339.538 240.016 339.074 239.776C338.626 239.52 338.026 239.392 337.274 239.392H334.418V250.216ZM346.428 245.824V242.272H349.764V245.824H346.428ZM346.428 253V249.448H349.764V253H346.428ZM357.831 253V240.712L354.087 242.872L352.983 240.496L358.239 237.16H361.095V253H357.831ZM365.791 253V250.408L369.415 246.688C370.103 245.984 370.695 245.368 371.191 244.84C371.687 244.296 372.063 243.784 372.319 243.304C372.591 242.824 372.727 242.312 372.727 241.768C372.727 240.968 372.503 240.432 372.055 240.16C371.607 239.872 370.887 239.728 369.895 239.728C369.495 239.728 369.055 239.752 368.575 239.8C368.095 239.848 367.631 239.904 367.183 239.968C366.751 240.032 366.375 240.096 366.055 240.16L365.887 237.616C366.239 237.52 366.671 237.416 367.183 237.304C367.711 237.192 368.279 237.096 368.887 237.016C369.511 236.92 370.119 236.872 370.711 236.872C372.439 236.872 373.759 237.24 374.671 237.976C375.583 238.696 376.039 239.816 376.039 241.336C376.039 242.168 375.919 242.904 375.679 243.544C375.455 244.184 375.095 244.8 374.599 245.392C374.119 245.968 373.479 246.6 372.679 247.288L369.511 250.312H376.255V253H365.791ZM384.383 253.264C383.359 253.264 382.471 253.128 381.719 252.856C380.967 252.568 380.343 252.112 379.847 251.488C379.367 250.848 378.999 250.016 378.743 248.992C378.503 247.968 378.383 246.712 378.383 245.224C378.383 243.688 378.503 242.384 378.743 241.312C378.999 240.24 379.375 239.384 379.871 238.744C380.367 238.088 380.983 237.616 381.719 237.328C382.471 237.04 383.351 236.896 384.359 236.896C385.399 236.896 386.295 237.04 387.047 237.328C387.799 237.616 388.415 238.088 388.895 238.744C389.391 239.384 389.751 240.24 389.975 241.312C390.215 242.368 390.335 243.672 390.335 245.224C390.335 247.192 390.119 248.768 389.687 249.952C389.271 251.12 388.623 251.968 387.743 252.496C386.863 253.008 385.743 253.264 384.383 253.264ZM384.383 250.48C384.831 250.48 385.215 250.408 385.535 250.264C385.871 250.104 386.151 249.832 386.375 249.448C386.599 249.064 386.759 248.528 386.855 247.84C386.967 247.152 387.023 246.28 387.023 245.224C387.023 244.104 386.967 243.184 386.855 242.464C386.759 241.744 386.607 241.184 386.399 240.784C386.191 240.368 385.919 240.08 385.583 239.92C385.247 239.744 384.847 239.656 384.383 239.656C383.919 239.656 383.519 239.744 383.183 239.92C382.847 240.08 382.567 240.36 382.343 240.76C382.135 241.16 381.975 241.728 381.863 242.464C381.751 243.184 381.695 244.112 381.695 245.248C381.695 246.304 381.751 247.176 381.863 247.864C381.991 248.552 382.167 249.088 382.391 249.472C382.615 249.84 382.887 250.104 383.207 250.264C383.543 250.408 383.935 250.48 384.383 250.48ZM397.455 253.264C396.863 253.264 396.239 253.232 395.583 253.168C394.943 253.104 394.327 253.024 393.735 252.928C393.159 252.816 392.679 252.72 392.295 252.64L392.439 250.072C392.823 250.12 393.279 250.176 393.807 250.24C394.351 250.304 394.903 250.36 395.463 250.408C396.039 250.44 396.567 250.456 397.047 250.456C397.959 250.456 398.639 250.288 399.087 249.952C399.535 249.616 399.759 249.072 399.759 248.32C399.759 247.808 399.655 247.408 399.447 247.12C399.255 246.816 398.967 246.592 398.583 246.448C398.215 246.304 397.783 246.224 397.287 246.208H394.023V243.568H397.215C397.583 243.568 397.935 243.488 398.271 243.328C398.623 243.168 398.903 242.936 399.111 242.632C399.335 242.328 399.447 241.96 399.447 241.528C399.447 240.856 399.239 240.384 398.823 240.112C398.423 239.824 397.767 239.68 396.855 239.68C396.375 239.68 395.871 239.704 395.343 239.752C394.815 239.8 394.311 239.856 393.831 239.92C393.351 239.968 392.951 240.024 392.631 240.088L392.487 237.568C392.839 237.472 393.271 237.376 393.783 237.28C394.295 237.168 394.839 237.08 395.415 237.016C395.991 236.936 396.535 236.896 397.047 236.896C398.407 236.896 399.503 237.04 400.335 237.328C401.183 237.6 401.799 238.056 402.183 238.696C402.567 239.32 402.759 240.144 402.759 241.168C402.759 241.728 402.687 242.2 402.543 242.584C402.415 242.968 402.239 243.296 402.015 243.568C401.807 243.84 401.591 244.064 401.367 244.24C401.143 244.4 400.935 244.544 400.743 244.672C401.223 244.896 401.639 245.144 401.991 245.416C402.343 245.688 402.615 246.048 402.807 246.496C402.999 246.944 403.095 247.544 403.095 248.296C403.095 249.496 402.887 250.464 402.471 251.2C402.055 251.92 401.431 252.448 400.599 252.784C399.767 253.104 398.719 253.264 397.455 253.264ZM410.383 253.264C409.903 253.264 409.367 253.232 408.775 253.168C408.199 253.104 407.631 253.032 407.071 252.952C406.527 252.856 406.055 252.768 405.655 252.688L405.919 250.192C406.255 250.24 406.671 250.296 407.167 250.36C407.679 250.408 408.207 250.448 408.751 250.48C409.295 250.512 409.807 250.528 410.287 250.528C411.423 250.528 412.255 250.2 412.783 249.544C413.327 248.888 413.615 247.896 413.647 246.568C413.311 246.696 412.943 246.816 412.543 246.928C412.159 247.04 411.775 247.128 411.391 247.192C411.023 247.256 410.687 247.288 410.383 247.288C408.655 247.288 407.343 246.88 406.447 246.064C405.567 245.248 405.127 243.968 405.127 242.224C405.127 241.072 405.359 240.104 405.823 239.32C406.303 238.52 406.967 237.92 407.815 237.52C408.679 237.104 409.687 236.896 410.839 236.896C412.231 236.896 413.367 237.224 414.247 237.88C415.143 238.52 415.799 239.448 416.215 240.664C416.631 241.88 416.839 243.344 416.839 245.056C416.839 246.64 416.679 247.96 416.359 249.016C416.055 250.072 415.623 250.912 415.063 251.536C414.503 252.16 413.823 252.608 413.023 252.88C412.239 253.136 411.359 253.264 410.383 253.264ZM410.719 244.624C411.055 244.624 411.407 244.592 411.775 244.528C412.143 244.448 412.495 244.36 412.831 244.264C413.167 244.152 413.447 244.056 413.671 243.976C413.655 243.096 413.559 242.328 413.383 241.672C413.207 241.016 412.911 240.504 412.495 240.136C412.095 239.768 411.543 239.584 410.839 239.584C410.007 239.584 409.359 239.824 408.895 240.304C408.447 240.784 408.223 241.424 408.223 242.224C408.223 243.056 408.431 243.664 408.847 244.048C409.279 244.432 409.903 244.624 410.719 244.624Z" fill="white"/>
</svg>
