<svg width="706" height="390" viewBox="0 0 706 390" fill="none" xmlns="http://www.w3.org/2000/svg">
<path d="M223.279 68.5001C214.779 60.5559 191.279 57.5016 177.223 60.5556C163.78 65.1769 150.079 69.1683 136.89 74.5001C132.582 76.2417 128.429 78.3779 124.168 80.2223C118.967 82.4735 119.316 90.0457 115.945 94.0001C108.736 102.459 96.6865 104.279 86.3899 105.222C79.3696 105.865 72.2942 108.792 66.2788 112.445C59.3077 116.677 58.8329 125.958 58.0565 133.5C57.2916 140.931 64.4748 147.998 68.3343 153.889C73.1357 161.217 79.6979 168.513 86.5565 174C93.1883 179.306 101.957 180.598 108.445 185.667C124.168 191.001 143.238 193.977 148.39 210.111C150.505 216.733 153.279 225.5 153.279 233C153.279 235.944 151.779 238.501 153.279 243.501" stroke="black" stroke-width="4" stroke-linecap="round" stroke-linejoin="round"/>
<path d="M217.942 81.8889C219.97 76.6834 221.14 73.7028 224.276 69C228.053 69.5396 230.236 71.3087 233.72 73C238.605 75.3713 245.01 75.8489 249.331 79.1667C261.059 88.1721 264.008 104.557 266.72 117.889C268.615 127.207 277.467 143.724 269.665 152.444C265.619 156.965 257.427 156.965 252.165 159.333C243.986 163.014 236.913 168.92 228.387 171.889C222.072 174.087 214.563 172.818 207.942 174C195.234 176.269 187.101 174.22 183.276 160.889C178.126 142.943 193.726 123.452 202.998 109.722C208.792 101.142 214.184 91.5348 217.942 81.8889Z" stroke="black" stroke-width="4" stroke-linecap="round" stroke-linejoin="round"/>
<path d="M329.281 163.373C332.553 154.603 332.608 151.322 341.448 148.262C348.606 145.784 356.361 141.163 363.836 140.151C370.559 139.241 375.788 137.495 381.392 133.818C387.338 129.916 393.518 128.548 395.725 121.596C397.635 115.579 403.473 110.516 403.114 103.873C402.803 98.1228 396.494 93.2644 393.059 89.1511C387.879 82.949 384.036 78.5398 381.836 70.5399C380.462 65.5424 378.95 61.1712 375.836 57.0399C369.57 48.7248 363.171 47.386 353.503 43.9844C350.3 42.8574 346.766 42.4715 343.67 41.0955C338.945 38.9956 330.281 35.1511 330.281 35.1511C323.921 34.0545 320.806 27.9705 316.836 23.2066C312.342 17.8139 312.202 12.5373 309.614 6.5955C308.6 4.26619 306.591 2.26019 303.948 2.03995C296.849 1.44844 296.261 7.53808 294.614 12.8733C291.321 23.5429 284.661 32.8285 281.725 43.7066C278.848 54.3702 277.395 61.3915 269.448 70.0955C266.987 72.7899 264.386 75.2354 262.392 78.3177C260.31 81.5347 257.281 84.373 257.281 84.373" stroke="black" stroke-width="4" stroke-linecap="round" stroke-linejoin="round"/>
<ellipse cx="153.281" cy="111.5" rx="10" ry="9.5" fill="black"/>
<circle cx="354.281" cy="83" r="8" fill="black"/>
<path d="M22.75 304L1.56 215.21H20.41L35.62 286.71H40.95L55.9 215.21H74.75L53.95 304H22.75ZM100.733 305.43C93.9727 305.43 88.8594 303.74 85.3927 300.36C82.0127 296.893 80.3227 291.693 80.3227 284.76C80.3227 279.907 81.1894 276.137 82.9227 273.45C84.6561 270.677 87.2127 268.683 90.5927 267.47C94.0594 266.17 98.2627 265.39 103.203 265.13L119.063 263.7V259.8C119.063 256.68 118.283 254.513 116.723 253.3C115.163 252 112.866 251.35 109.833 251.35C107.406 251.35 104.589 251.437 101.383 251.61C98.2627 251.783 95.1427 252 92.0227 252.26C88.9894 252.52 86.3461 252.78 84.0927 253.04L83.5727 240.82C85.8261 240.3 88.5127 239.78 91.6327 239.26C94.8394 238.653 98.1761 238.177 101.643 237.83C105.109 237.483 108.316 237.31 111.263 237.31C116.809 237.31 121.446 238.003 125.173 239.39C128.899 240.777 131.716 243.073 133.623 246.28C135.529 249.4 136.483 253.647 136.483 259.02V288.79C136.656 290.003 137.306 290.957 138.433 291.65C139.559 292.257 140.859 292.69 142.333 292.95L141.943 304.91C139.863 304.997 137.826 305.04 135.833 305.04C133.839 305.04 132.149 304.91 130.763 304.65C128.769 304.39 127.036 303.87 125.563 303.09C124.176 302.31 123.049 301.487 122.183 300.62C120.796 301.227 118.933 301.92 116.593 302.7C114.253 303.48 111.696 304.13 108.923 304.65C106.236 305.17 103.506 305.43 100.733 305.43ZM104.893 292.56C106.539 292.56 108.273 292.387 110.093 292.04C111.913 291.693 113.603 291.303 115.163 290.87C116.809 290.35 118.109 289.873 119.063 289.44V274.49L105.803 275.66C102.943 275.92 100.863 276.787 99.5627 278.26C98.3494 279.647 97.7427 281.64 97.7427 284.24C97.7427 286.84 98.3061 288.877 99.4327 290.35C100.646 291.823 102.466 292.56 104.893 292.56ZM151.75 304V238.74H169.04V246.41C170.513 245.283 172.333 244.113 174.5 242.9C176.666 241.6 179.006 240.43 181.52 239.39C184.12 238.263 186.59 237.527 188.93 237.18V253.95C186.676 254.297 184.293 254.903 181.78 255.77C179.266 256.55 176.883 257.417 174.63 258.37C172.463 259.323 170.6 260.19 169.04 260.97V304H151.75ZM226.691 333.77C219.757 333.77 213.951 333.25 209.271 332.21C204.677 331.17 201.211 329.263 198.871 326.49C196.531 323.803 195.361 319.903 195.361 314.79C195.361 312.537 195.664 310.5 196.271 308.68C196.964 306.947 198.004 305.3 199.391 303.74C200.864 302.18 202.684 300.577 204.851 298.93C203.637 298.063 202.641 296.807 201.861 295.16C201.167 293.427 200.821 291.563 200.821 289.57C200.821 288.53 201.427 287.013 202.641 285.02C203.941 282.94 205.197 281.12 206.411 279.56C204.677 278.78 203.031 277.653 201.471 276.18C199.911 274.62 198.611 272.54 197.571 269.94C196.617 267.34 196.141 264.003 196.141 259.93C196.141 251.697 198.481 245.89 203.161 242.51C207.927 239.043 214.687 237.31 223.441 237.31C225.694 237.31 228.121 237.483 230.721 237.83C233.321 238.177 235.401 238.523 236.961 238.87L258.151 238.48V250.18L248.271 250.05C249.051 251.09 249.744 252.433 250.351 254.08C251.044 255.64 251.391 257.59 251.391 259.93C251.391 265.91 250.351 270.547 248.271 273.84C246.277 277.133 243.244 279.43 239.171 280.73C235.097 281.943 229.941 282.55 223.701 282.55C223.007 282.55 222.054 282.507 220.841 282.42C219.627 282.247 218.631 282.117 217.851 282.03C217.504 282.897 217.157 283.893 216.811 285.02C216.464 286.06 216.291 286.797 216.291 287.23C216.291 288.357 216.637 289.223 217.331 289.83C218.111 290.437 219.627 290.87 221.881 291.13C224.221 291.303 227.731 291.39 232.411 291.39C238.564 291.39 243.461 291.953 247.101 293.08C250.827 294.207 253.471 296.2 255.031 299.06C256.591 301.92 257.371 305.95 257.371 311.15C257.371 318.863 254.641 324.54 249.181 328.18C243.807 331.907 236.311 333.77 226.691 333.77ZM225.781 320.9C231.154 320.9 235.011 320.25 237.351 318.95C239.777 317.737 240.991 315.7 240.991 312.84C240.991 310.587 240.557 308.94 239.691 307.9C238.911 306.86 237.567 306.167 235.661 305.82C233.754 305.56 231.154 305.43 227.861 305.43C226.994 305.43 225.954 305.387 224.741 305.3C223.527 305.3 222.271 305.257 220.971 305.17C219.757 305.17 218.631 305.127 217.591 305.04C216.637 304.953 215.944 304.91 215.511 304.91C213.604 306.21 212.304 307.38 211.611 308.42C210.917 309.547 210.571 311.02 210.571 312.84C210.571 314.833 211.047 316.393 212.001 317.52C212.954 318.733 214.514 319.6 216.681 320.12C218.934 320.64 221.967 320.9 225.781 320.9ZM223.571 270.33C227.557 270.33 230.374 269.55 232.021 267.99C233.754 266.343 234.621 263.657 234.621 259.93C234.621 256.203 233.754 253.517 232.021 251.87C230.374 250.223 227.557 249.4 223.571 249.4C219.757 249.4 216.984 250.223 215.251 251.87C213.604 253.517 212.781 256.203 212.781 259.93C212.781 263.657 213.604 266.343 215.251 267.99C216.984 269.55 219.757 270.33 223.571 270.33ZM284.307 305.43C277.547 305.43 272.434 303.74 268.967 300.36C265.587 296.893 263.897 291.693 263.897 284.76C263.897 279.907 264.764 276.137 266.497 273.45C268.23 270.677 270.787 268.683 274.167 267.47C277.634 266.17 281.837 265.39 286.777 265.13L302.637 263.7V259.8C302.637 256.68 301.857 254.513 300.297 253.3C298.737 252 296.44 251.35 293.407 251.35C290.98 251.35 288.164 251.437 284.957 251.61C281.837 251.783 278.717 252 275.597 252.26C272.564 252.52 269.92 252.78 267.667 253.04L267.147 240.82C269.4 240.3 272.087 239.78 275.207 239.26C278.414 238.653 281.75 238.177 285.217 237.83C288.684 237.483 291.89 237.31 294.837 237.31C300.384 237.31 305.02 238.003 308.747 239.39C312.474 240.777 315.29 243.073 317.197 246.28C319.104 249.4 320.057 253.647 320.057 259.02V288.79C320.23 290.003 320.88 290.957 322.007 291.65C323.134 292.257 324.434 292.69 325.907 292.95L325.517 304.91C323.437 304.997 321.4 305.04 319.407 305.04C317.414 305.04 315.724 304.91 314.337 304.65C312.344 304.39 310.61 303.87 309.137 303.09C307.75 302.31 306.624 301.487 305.757 300.62C304.37 301.227 302.507 301.92 300.167 302.7C297.827 303.48 295.27 304.13 292.497 304.65C289.81 305.17 287.08 305.43 284.307 305.43ZM288.467 292.56C290.114 292.56 291.847 292.387 293.667 292.04C295.487 291.693 297.177 291.303 298.737 290.87C300.384 290.35 301.684 289.873 302.637 289.44V274.49L289.377 275.66C286.517 275.92 284.437 276.787 283.137 278.26C281.924 279.647 281.317 281.64 281.317 284.24C281.317 286.84 281.88 288.877 283.007 290.35C284.22 291.823 286.04 292.56 288.467 292.56ZM358.854 305.43C355.994 305.43 352.917 305.257 349.624 304.91C346.417 304.65 343.384 304.303 340.524 303.87C337.75 303.437 335.367 303.003 333.374 302.57L333.894 289.7C336.147 289.96 338.66 290.263 341.434 290.61C344.294 290.957 347.067 291.26 349.754 291.52C352.527 291.693 354.78 291.78 356.514 291.78C359.114 291.78 361.237 291.563 362.884 291.13C364.617 290.697 365.917 290.003 366.784 289.05C367.65 288.01 368.084 286.537 368.084 284.63C368.084 283.157 367.694 282.03 366.914 281.25C366.22 280.47 364.834 279.82 362.754 279.3C360.76 278.693 357.814 278.087 353.914 277.48C349.06 276.787 345.03 275.79 341.824 274.49C338.704 273.19 336.407 271.283 334.934 268.77C333.46 266.17 332.724 262.66 332.724 258.24C332.724 252.867 333.894 248.663 336.234 245.63C338.574 242.597 341.694 240.473 345.594 239.26C349.494 237.96 353.74 237.31 358.334 237.31C361.367 237.31 364.487 237.483 367.694 237.83C370.9 238.09 373.934 238.437 376.794 238.87C379.654 239.303 382.037 239.737 383.944 240.17L383.424 253.3C381.257 252.953 378.744 252.65 375.884 252.39C373.024 252.043 370.164 251.783 367.304 251.61C364.53 251.437 362.19 251.35 360.284 251.35C358.29 251.35 356.514 251.567 354.954 252C353.394 252.347 352.18 252.953 351.314 253.82C350.534 254.687 350.144 255.987 350.144 257.72C350.144 258.933 350.49 259.93 351.184 260.71C351.877 261.49 353.177 262.183 355.084 262.79C357.077 263.31 359.937 263.83 363.664 264.35C369.037 265.13 373.327 266.213 376.534 267.6C379.74 268.987 382.037 270.98 383.424 273.58C384.897 276.18 385.634 279.69 385.634 284.11C385.634 291.997 383.294 297.543 378.614 300.75C374.02 303.87 367.434 305.43 358.854 305.43ZM412.623 304L391.433 215.21H410.283L425.493 286.71H430.823L445.773 215.21H464.623L443.823 304H412.623ZM499.966 305.43C492.772 305.43 487.052 304.217 482.806 301.79C478.646 299.363 475.656 295.68 473.836 290.74C472.016 285.8 471.106 279.603 471.106 272.15C471.106 264.09 472.232 257.503 474.486 252.39C476.826 247.277 480.206 243.507 484.626 241.08C489.046 238.567 494.506 237.31 501.006 237.31C510.626 237.31 517.862 239.737 522.716 244.59C527.656 249.443 530.126 257.113 530.126 267.6L529.346 277.22H488.526C488.612 282.073 489.609 285.713 491.516 288.14C493.422 290.567 496.716 291.78 501.396 291.78C504.082 291.78 507.029 291.737 510.236 291.65C513.442 291.477 516.606 291.303 519.726 291.13C522.932 290.957 525.662 290.783 527.916 290.61L528.306 302.7C526.139 303.047 523.409 303.437 520.116 303.87C516.822 304.303 513.399 304.65 509.846 304.91C506.379 305.257 503.086 305.43 499.966 305.43ZM488.526 266.17H512.836C512.836 260.277 511.882 256.16 509.976 253.82C508.156 251.48 505.166 250.31 501.006 250.31C496.932 250.31 493.812 251.523 491.646 253.95C489.566 256.377 488.526 260.45 488.526 266.17ZM564.503 305.56C559.736 305.56 555.879 304.867 552.933 303.48C549.986 302.093 547.863 299.71 546.563 296.33C545.349 292.863 544.743 288.053 544.743 281.9V253.17H537.073V238.74H544.743V221.45H562.033V238.74H578.673V253.17H562.033V277.35C562.033 280.73 562.163 283.373 562.423 285.28C562.769 287.187 563.463 288.53 564.503 289.31C565.543 290.09 567.146 290.48 569.313 290.48C569.919 290.48 570.829 290.437 572.043 290.35C573.256 290.263 574.469 290.177 575.683 290.09C576.896 290.003 577.893 289.917 578.673 289.83L579.193 303.74C577.113 304.087 574.599 304.477 571.653 304.91C568.793 305.343 566.409 305.56 564.503 305.56Z" fill="black"/>
<path d="M261.024 350V317.216H273.552C276.112 317.216 278.256 317.584 279.984 318.32C281.744 319.024 283.152 320.064 284.208 321.44C285.264 322.816 286.016 324.48 286.464 326.432C286.944 328.384 287.184 330.608 287.184 333.104C287.184 335.632 286.96 337.92 286.512 339.968C286.096 342.016 285.376 343.792 284.352 345.296C283.328 346.8 281.952 347.968 280.224 348.8C278.496 349.6 276.336 350 273.744 350H261.024ZM267.648 344.432H273.36C274.864 344.432 276.08 344.144 277.008 343.568C277.936 342.992 278.64 342.192 279.12 341.168C279.632 340.112 279.968 338.912 280.128 337.568C280.32 336.192 280.416 334.704 280.416 333.104C280.416 331.568 280.32 330.176 280.128 328.928C279.936 327.648 279.584 326.56 279.072 325.664C278.592 324.736 277.888 324.032 276.96 323.552C276.064 323.04 274.864 322.784 273.36 322.784H267.648V344.432ZM291.765 350V325.904H298.149V328.736C298.693 328.32 299.365 327.888 300.165 327.44C300.965 326.96 301.829 326.528 302.757 326.144C303.717 325.728 304.629 325.456 305.493 325.328V331.52C304.661 331.648 303.781 331.872 302.853 332.192C301.925 332.48 301.045 332.8 300.213 333.152C299.413 333.504 298.725 333.824 298.149 334.112V350H291.765ZM315.116 350.528C312.62 350.528 310.732 349.904 309.452 348.656C308.204 347.376 307.58 345.456 307.58 342.896C307.58 341.104 307.9 339.712 308.54 338.72C309.18 337.696 310.124 336.96 311.372 336.512C312.652 336.032 314.204 335.744 316.028 335.648L321.884 335.12V333.68C321.884 332.528 321.596 331.728 321.02 331.28C320.444 330.8 319.596 330.56 318.476 330.56C317.58 330.56 316.54 330.592 315.356 330.656C314.204 330.72 313.052 330.8 311.9 330.896C310.78 330.992 309.804 331.088 308.972 331.184L308.78 326.672C309.612 326.48 310.604 326.288 311.756 326.096C312.94 325.872 314.172 325.696 315.452 325.568C316.732 325.44 317.916 325.376 319.004 325.376C321.052 325.376 322.764 325.632 324.14 326.144C325.516 326.656 326.556 327.504 327.26 328.688C327.964 329.84 328.316 331.408 328.316 333.392V344.384C328.38 344.832 328.62 345.184 329.036 345.44C329.452 345.664 329.932 345.824 330.476 345.92L330.332 350.336C329.564 350.368 328.812 350.384 328.076 350.384C327.34 350.384 326.716 350.336 326.204 350.24C325.468 350.144 324.828 349.952 324.284 349.664C323.772 349.376 323.356 349.072 323.036 348.752C322.524 348.976 321.836 349.232 320.972 349.52C320.108 349.808 319.164 350.048 318.14 350.24C317.148 350.432 316.14 350.528 315.116 350.528ZM316.652 345.776C317.26 345.776 317.9 345.712 318.572 345.584C319.244 345.456 319.868 345.312 320.444 345.152C321.052 344.96 321.532 344.784 321.884 344.624V339.104L316.988 339.536C315.932 339.632 315.164 339.952 314.684 340.496C314.236 341.008 314.012 341.744 314.012 342.704C314.012 343.664 314.22 344.416 314.636 344.96C315.084 345.504 315.756 345.776 316.652 345.776ZM333.809 350V342.896H340.481V350H333.809ZM356.57 350.528C355.354 350.528 354.026 350.448 352.586 350.288C351.146 350.16 349.738 350 348.362 349.808C347.018 349.584 345.866 349.392 344.906 349.232L345.338 344C346.33 344.128 347.482 344.272 348.794 344.432C350.106 344.56 351.402 344.672 352.682 344.768C353.994 344.864 355.13 344.912 356.09 344.912C357.914 344.912 359.242 344.56 360.074 343.856C360.906 343.12 361.322 341.984 361.322 340.448C361.322 339.616 361.146 338.96 360.794 338.48C360.474 337.968 359.882 337.568 359.018 337.28C358.154 336.96 356.954 336.656 355.418 336.368C352.858 335.888 350.778 335.296 349.178 334.592C347.61 333.888 346.458 332.896 345.722 331.616C345.018 330.336 344.666 328.624 344.666 326.48C344.666 323.984 345.13 322.032 346.058 320.624C346.986 319.184 348.314 318.16 350.042 317.552C351.77 316.944 353.802 316.64 356.138 316.64C357.194 316.64 358.394 316.704 359.738 316.832C361.114 316.928 362.458 317.056 363.77 317.216C365.114 317.376 366.25 317.552 367.177 317.744L366.89 323.024C365.93 322.896 364.81 322.784 363.53 322.688C362.282 322.56 361.034 322.448 359.786 322.352C358.57 322.256 357.53 322.208 356.666 322.208C354.842 322.208 353.498 322.496 352.634 323.072C351.77 323.648 351.338 324.576 351.338 325.856C351.338 326.816 351.53 327.552 351.914 328.064C352.298 328.576 352.938 328.992 353.834 329.312C354.762 329.632 356.026 329.968 357.626 330.32C359.514 330.736 361.114 331.184 362.426 331.664C363.77 332.144 364.842 332.72 365.642 333.392C366.474 334.064 367.082 334.928 367.466 335.984C367.85 337.04 368.042 338.368 368.042 339.968C368.042 342.528 367.578 344.592 366.65 346.16C365.754 347.696 364.442 348.816 362.714 349.52C361.018 350.192 358.97 350.528 356.57 350.528ZM380.697 350.576C378.937 350.576 377.513 350.32 376.425 349.808C375.337 349.296 374.553 348.416 374.073 347.168C373.625 345.888 373.401 344.112 373.401 341.84V331.232H370.569V325.904H373.401V319.52H379.785V325.904H385.929V331.232H379.785V340.16C379.785 341.408 379.833 342.384 379.929 343.088C380.057 343.792 380.313 344.288 380.697 344.576C381.081 344.864 381.673 345.008 382.473 345.008C382.697 345.008 383.033 344.992 383.481 344.96C383.929 344.928 384.377 344.896 384.825 344.864C385.273 344.832 385.641 344.8 385.929 344.768L386.121 349.904C385.353 350.032 384.425 350.176 383.337 350.336C382.281 350.496 381.401 350.576 380.697 350.576ZM399.243 350.528C396.587 350.528 394.475 350.08 392.907 349.184C391.371 348.288 390.267 346.928 389.595 345.104C388.923 343.28 388.587 340.992 388.587 338.24C388.587 335.264 389.003 332.832 389.835 330.944C390.699 329.056 391.947 327.664 393.579 326.768C395.211 325.84 397.227 325.376 399.627 325.376C403.179 325.376 405.851 326.272 407.643 328.064C409.467 329.856 410.379 332.688 410.379 336.56L410.091 340.112H395.019C395.051 341.904 395.419 343.248 396.123 344.144C396.827 345.04 398.043 345.488 399.771 345.488C400.763 345.488 401.851 345.472 403.035 345.44C404.219 345.376 405.387 345.312 406.539 345.248C407.723 345.184 408.731 345.12 409.563 345.056L409.707 349.52C408.907 349.648 407.899 349.792 406.683 349.952C405.467 350.112 404.203 350.24 402.891 350.336C401.611 350.464 400.395 350.528 399.243 350.528ZM395.019 336.032H403.995C403.995 333.856 403.643 332.336 402.939 331.472C402.267 330.608 401.163 330.176 399.627 330.176C398.123 330.176 396.971 330.624 396.171 331.52C395.403 332.416 395.019 333.92 395.019 336.032ZM414.624 360.128V325.904H420.96L421.008 327.44C421.456 327.152 422.016 326.848 422.688 326.528C423.392 326.208 424.144 325.936 424.944 325.712C425.744 325.488 426.528 325.376 427.296 325.376C430.528 325.376 432.848 326.416 434.256 328.496C435.664 330.544 436.368 333.664 436.368 337.856C436.368 340.864 436.016 343.296 435.312 345.152C434.608 347.008 433.472 348.368 431.904 349.232C430.368 350.096 428.336 350.528 425.808 350.528C425.008 350.528 424.144 350.464 423.216 350.336C422.288 350.208 421.552 350.08 421.008 349.952V360.128H414.624ZM424.8 345.2C426.08 345.2 427.088 344.928 427.824 344.384C428.56 343.84 429.072 343.024 429.36 341.936C429.68 340.816 429.84 339.408 429.84 337.712C429.84 335.088 429.472 333.28 428.736 332.288C428.032 331.264 427.008 330.752 425.664 330.752C425.152 330.752 424.608 330.816 424.032 330.944C423.456 331.072 422.896 331.232 422.352 331.424C421.808 331.616 421.36 331.808 421.008 332V344.864C421.392 344.896 421.936 344.96 422.64 345.056C423.376 345.152 424.096 345.2 424.8 345.2ZM440.734 350V316.064H447.118V326.768C447.918 326.48 448.942 326.176 450.19 325.856C451.438 325.536 452.59 325.376 453.646 325.376C455.886 325.376 457.63 325.776 458.878 326.576C460.126 327.344 460.99 328.608 461.47 330.368C461.982 332.128 462.238 334.464 462.238 337.376V350H455.806V337.856C455.806 336.192 455.71 334.864 455.518 333.872C455.326 332.848 454.958 332.112 454.414 331.664C453.902 331.216 453.102 330.992 452.014 330.992C451.15 330.992 450.254 331.104 449.326 331.328C448.43 331.552 447.694 331.76 447.118 331.952V350H440.734ZM473.553 350.528C471.057 350.528 469.169 349.904 467.889 348.656C466.641 347.376 466.017 345.456 466.017 342.896C466.017 341.104 466.337 339.712 466.977 338.72C467.617 337.696 468.561 336.96 469.809 336.512C471.089 336.032 472.641 335.744 474.465 335.648L480.321 335.12V333.68C480.321 332.528 480.033 331.728 479.457 331.28C478.881 330.8 478.033 330.56 476.913 330.56C476.017 330.56 474.977 330.592 473.793 330.656C472.641 330.72 471.489 330.8 470.337 330.896C469.217 330.992 468.241 331.088 467.409 331.184L467.217 326.672C468.049 326.48 469.041 326.288 470.193 326.096C471.377 325.872 472.609 325.696 473.889 325.568C475.169 325.44 476.353 325.376 477.441 325.376C479.489 325.376 481.201 325.632 482.577 326.144C483.953 326.656 484.993 327.504 485.697 328.688C486.401 329.84 486.753 331.408 486.753 333.392V344.384C486.817 344.832 487.057 345.184 487.473 345.44C487.889 345.664 488.369 345.824 488.913 345.92L488.769 350.336C488.001 350.368 487.249 350.384 486.513 350.384C485.777 350.384 485.153 350.336 484.641 350.24C483.905 350.144 483.265 349.952 482.721 349.664C482.209 349.376 481.793 349.072 481.473 348.752C480.961 348.976 480.273 349.232 479.409 349.52C478.545 349.808 477.601 350.048 476.577 350.24C475.585 350.432 474.577 350.528 473.553 350.528ZM475.089 345.776C475.697 345.776 476.337 345.712 477.009 345.584C477.681 345.456 478.305 345.312 478.881 345.152C479.489 344.96 479.969 344.784 480.321 344.624V339.104L475.425 339.536C474.369 339.632 473.601 339.952 473.121 340.496C472.673 341.008 472.449 341.744 472.449 342.704C472.449 343.664 472.657 344.416 473.073 344.96C473.521 345.504 474.193 345.776 475.089 345.776ZM492.39 350V325.904H498.774V327.44C499.286 327.12 499.91 326.816 500.646 326.528C501.382 326.208 502.15 325.936 502.95 325.712C503.782 325.488 504.582 325.376 505.35 325.376C507.59 325.376 509.318 325.776 510.534 326.576C511.782 327.344 512.662 328.624 513.174 330.416C513.686 332.176 513.942 334.544 513.942 337.52V350H507.51V337.856C507.51 336.192 507.414 334.864 507.222 333.872C507.03 332.848 506.662 332.112 506.118 331.664C505.574 331.216 504.774 330.992 503.718 330.992C503.142 330.992 502.534 331.056 501.894 331.184C501.286 331.28 500.694 331.424 500.118 331.616C499.574 331.808 499.126 332 498.774 332.192V350H492.39ZM524.825 360.128L527.897 350H522.761L517.049 325.904H523.721L527.993 344.576H529.241L533.513 325.904H539.945L531.641 360.128H524.825ZM559.509 350L551.685 317.216H558.645L564.261 343.616H566.229L571.749 317.216H578.709L571.029 350H559.509ZM588.303 350.528C585.807 350.528 583.919 349.904 582.639 348.656C581.391 347.376 580.767 345.456 580.767 342.896C580.767 341.104 581.087 339.712 581.727 338.72C582.367 337.696 583.311 336.96 584.559 336.512C585.839 336.032 587.391 335.744 589.215 335.648L595.071 335.12V333.68C595.071 332.528 594.783 331.728 594.207 331.28C593.631 330.8 592.783 330.56 591.663 330.56C590.767 330.56 589.727 330.592 588.543 330.656C587.391 330.72 586.239 330.8 585.087 330.896C583.967 330.992 582.991 331.088 582.159 331.184L581.967 326.672C582.799 326.48 583.791 326.288 584.943 326.096C586.127 325.872 587.359 325.696 588.639 325.568C589.919 325.44 591.103 325.376 592.191 325.376C594.239 325.376 595.951 325.632 597.327 326.144C598.703 326.656 599.743 327.504 600.447 328.688C601.151 329.84 601.503 331.408 601.503 333.392V344.384C601.567 344.832 601.807 345.184 602.223 345.44C602.639 345.664 603.119 345.824 603.663 345.92L603.519 350.336C602.751 350.368 601.999 350.384 601.263 350.384C600.527 350.384 599.903 350.336 599.391 350.24C598.655 350.144 598.015 349.952 597.471 349.664C596.959 349.376 596.543 349.072 596.223 348.752C595.711 348.976 595.023 349.232 594.159 349.52C593.295 349.808 592.351 350.048 591.327 350.24C590.335 350.432 589.327 350.528 588.303 350.528ZM589.839 345.776C590.447 345.776 591.087 345.712 591.759 345.584C592.431 345.456 593.055 345.312 593.631 345.152C594.239 344.96 594.719 344.784 595.071 344.624V339.104L590.175 339.536C589.119 339.632 588.351 339.952 587.871 340.496C587.423 341.008 587.199 341.744 587.199 342.704C587.199 343.664 587.407 344.416 587.823 344.96C588.271 345.504 588.943 345.776 589.839 345.776ZM607.14 350V325.904H613.524V328.736C614.068 328.32 614.74 327.888 615.54 327.44C616.34 326.96 617.204 326.528 618.132 326.144C619.092 325.728 620.004 325.456 620.868 325.328V331.52C620.036 331.648 619.156 331.872 618.228 332.192C617.3 332.48 616.42 332.8 615.588 333.152C614.788 333.504 614.1 333.824 613.524 334.112V350H607.14ZM634.811 360.992C632.251 360.992 630.107 360.8 628.379 360.416C626.683 360.032 625.403 359.328 624.539 358.304C623.675 357.312 623.243 355.872 623.243 353.984C623.243 353.152 623.355 352.4 623.579 351.728C623.835 351.088 624.219 350.48 624.73 349.904C625.275 349.328 625.947 348.736 626.747 348.128C626.299 347.808 625.931 347.344 625.643 346.736C625.387 346.096 625.259 345.408 625.259 344.672C625.259 344.288 625.483 343.728 625.931 342.992C626.411 342.224 626.875 341.552 627.323 340.976C626.683 340.688 626.075 340.272 625.499 339.728C624.923 339.152 624.443 338.384 624.059 337.424C623.707 336.464 623.531 335.232 623.531 333.728C623.531 330.688 624.395 328.544 626.123 327.296C627.883 326.016 630.379 325.376 633.611 325.376C634.443 325.376 635.339 325.44 636.299 325.568C637.259 325.696 638.027 325.824 638.603 325.952L646.427 325.808V330.128L642.779 330.08C643.067 330.464 643.323 330.96 643.547 331.568C643.803 332.144 643.931 332.864 643.931 333.728C643.931 335.936 643.547 337.648 642.779 338.864C642.043 340.08 640.923 340.928 639.419 341.408C637.915 341.856 636.011 342.08 633.707 342.08C633.451 342.08 633.099 342.064 632.651 342.032C632.203 341.968 631.835 341.92 631.547 341.888C631.419 342.208 631.291 342.576 631.163 342.992C631.035 343.376 630.971 343.648 630.971 343.808C630.971 344.224 631.099 344.544 631.355 344.768C631.643 344.992 632.203 345.152 633.035 345.248C633.899 345.312 635.195 345.344 636.923 345.344C639.195 345.344 641.003 345.552 642.347 345.968C643.723 346.384 644.699 347.12 645.275 348.176C645.851 349.232 646.139 350.72 646.139 352.64C646.139 355.488 645.131 357.584 643.115 358.928C641.131 360.304 638.363 360.992 634.811 360.992ZM634.475 356.24C636.459 356.24 637.883 356 638.747 355.52C639.643 355.072 640.091 354.32 640.091 353.264C640.091 352.432 639.931 351.824 639.611 351.44C639.323 351.056 638.827 350.8 638.123 350.672C637.419 350.576 636.459 350.528 635.243 350.528C634.923 350.528 634.539 350.512 634.091 350.48C633.643 350.48 633.179 350.464 632.699 350.432C632.251 350.432 631.835 350.416 631.451 350.384C631.099 350.352 630.843 350.336 630.683 350.336C629.979 350.816 629.499 351.248 629.243 351.632C628.987 352.048 628.859 352.592 628.859 353.264C628.859 354 629.035 354.576 629.387 354.992C629.739 355.44 630.315 355.76 631.115 355.952C631.947 356.144 633.067 356.24 634.475 356.24ZM633.659 337.568C635.131 337.568 636.171 337.28 636.779 336.704C637.419 336.096 637.739 335.104 637.739 333.728C637.739 332.352 637.419 331.36 636.779 330.752C636.171 330.144 635.131 329.84 633.659 329.84C632.251 329.84 631.227 330.144 630.587 330.752C629.979 331.36 629.675 332.352 629.675 333.728C629.675 335.104 629.979 336.096 630.587 336.704C631.227 337.28 632.251 337.568 633.659 337.568ZM656.084 350.528C653.588 350.528 651.7 349.904 650.42 348.656C649.172 347.376 648.548 345.456 648.548 342.896C648.548 341.104 648.868 339.712 649.508 338.72C650.148 337.696 651.092 336.96 652.34 336.512C653.62 336.032 655.172 335.744 656.996 335.648L662.852 335.12V333.68C662.852 332.528 662.564 331.728 661.988 331.28C661.412 330.8 660.564 330.56 659.444 330.56C658.548 330.56 657.508 330.592 656.324 330.656C655.172 330.72 654.02 330.8 652.868 330.896C651.748 330.992 650.772 331.088 649.94 331.184L649.748 326.672C650.58 326.48 651.572 326.288 652.724 326.096C653.908 325.872 655.14 325.696 656.42 325.568C657.7 325.44 658.884 325.376 659.972 325.376C662.02 325.376 663.732 325.632 665.108 326.144C666.484 326.656 667.524 327.504 668.228 328.688C668.932 329.84 669.284 331.408 669.284 333.392V344.384C669.348 344.832 669.588 345.184 670.004 345.44C670.42 345.664 670.9 345.824 671.444 345.92L671.3 350.336C670.532 350.368 669.78 350.384 669.044 350.384C668.308 350.384 667.684 350.336 667.172 350.24C666.436 350.144 665.796 349.952 665.252 349.664C664.74 349.376 664.324 349.072 664.004 348.752C663.492 348.976 662.804 349.232 661.94 349.52C661.076 349.808 660.132 350.048 659.108 350.24C658.116 350.432 657.108 350.528 656.084 350.528ZM657.62 345.776C658.228 345.776 658.868 345.712 659.54 345.584C660.212 345.456 660.836 345.312 661.412 345.152C662.02 344.96 662.5 344.784 662.852 344.624V339.104L657.956 339.536C656.9 339.632 656.132 339.952 655.652 340.496C655.204 341.008 654.98 341.744 654.98 342.704C654.98 343.664 655.188 344.416 655.604 344.96C656.052 345.504 656.724 345.776 657.62 345.776ZM683.609 350.528C682.553 350.528 681.417 350.464 680.201 350.336C679.017 350.24 677.897 350.112 676.841 349.952C675.817 349.792 674.937 349.632 674.201 349.472L674.393 344.72C675.225 344.816 676.153 344.928 677.177 345.056C678.233 345.184 679.257 345.296 680.249 345.392C681.273 345.456 682.105 345.488 682.745 345.488C683.705 345.488 684.489 345.408 685.097 345.248C685.737 345.088 686.217 344.832 686.537 344.48C686.857 344.096 687.017 343.552 687.017 342.848C687.017 342.304 686.873 341.888 686.585 341.6C686.329 341.312 685.817 341.072 685.049 340.88C684.313 340.656 683.225 340.432 681.785 340.208C679.993 339.952 678.505 339.584 677.321 339.104C676.169 338.624 675.321 337.92 674.777 336.992C674.233 336.032 673.961 334.736 673.961 333.104C673.961 331.12 674.393 329.568 675.257 328.448C676.121 327.328 677.273 326.544 678.713 326.096C680.153 325.616 681.721 325.376 683.417 325.376C684.537 325.376 685.689 325.44 686.873 325.568C688.057 325.664 689.177 325.792 690.233 325.952C691.289 326.112 692.169 326.272 692.873 326.432L692.681 331.28C691.881 331.152 690.953 331.04 689.897 330.944C688.841 330.816 687.785 330.72 686.729 330.656C685.705 330.592 684.841 330.56 684.137 330.56C683.401 330.56 682.745 330.64 682.169 330.8C681.593 330.928 681.145 331.152 680.825 331.472C680.537 331.792 680.393 332.272 680.393 332.912C680.393 333.36 680.521 333.728 680.777 334.016C681.033 334.304 681.513 334.56 682.217 334.784C682.953 334.976 684.009 335.168 685.385 335.36C687.369 335.648 688.953 336.048 690.137 336.56C691.321 337.072 692.169 337.808 692.681 338.768C693.225 339.728 693.497 341.024 693.497 342.656C693.497 345.568 692.633 347.616 690.905 348.8C689.209 349.952 686.777 350.528 683.609 350.528Z" fill="black"/>
</svg>
